<?xml version="1.0" encoding="utf-8"?>
<svg width="212" height="189" viewBox="0 0 212 189" fill="none" xmlns="http://www.w3.org/2000/svg">
<path d="M198.895 0L117.617 58.0077L132.756 26.149L198.895 0Z" fill="#E17726"/>
<path d="M13.5049 0L94.0314 58.65L79.6332 26.149L13.5049 0Z" fill="#E27625"/>
<path d="M170.413 135.341L149.044 166.642L195.249 178.616L208.463 135.98L170.413 135.341Z" fill="#E27625"/>
<path d="M4.0459 135.98L17.2089 178.616L63.3632 166.642L42.0452 135.341L4.0459 135.98Z" fill="#E27625"/>
<path d="M60.8667 83.1446L47.8833 101.427L93.5784 103.348L92.0422 54.2307L60.8667 83.1446Z" fill="#E27625"/>
<path d="M151.633 83.1445L120.03 53.5887L119.032 103.347L164.676 101.427L151.633 83.1445Z" fill="#E27625"/>
<path d="M63.3631 166.642L91.042 153.796L67.2557 136.261L63.3631 166.642Z" fill="#E27625"/>
<path d="M121.459 153.796L149.044 166.642L145.19 136.261L121.459 153.796Z" fill="#E27625"/>
<path d="M149.044 166.641L121.459 153.796L123.77 170.441L123.557 177.977L149.044 166.641Z" fill="#D5BFB2"/>
<path d="M63.3632 166.642L88.8503 177.978L88.6969 170.441L91.042 153.796L63.3632 166.642Z" fill="#D5BFB2"/>
<path d="M89.3167 125.046L66.3039 118.625L82.5343 111.672L89.3167 125.046Z" fill="#233447"/>
<path d="M123.184 125.046L129.966 111.672L146.27 118.625L123.184 125.046Z" fill="#233447"/>
<path d="M63.3631 166.642L67.4089 135.341L42.0454 135.98L63.3631 166.642Z" fill="#CC6228"/>
<path d="M145.09 135.341L149.044 166.642L170.413 135.98L145.09 135.341Z" fill="#CC6228"/>
<path d="M164.676 101.427L119.032 103.348L123.183 125.046L129.966 111.672L146.269 118.625L164.676 101.427Z" fill="#CC6228"/>
<path d="M66.3039 118.625L82.5343 111.672L89.3166 125.046L93.5784 103.348L47.8833 101.427L66.3039 118.625Z" fill="#CC6228"/>
<path d="M47.8833 101.427L67.2557 136.261L66.3039 118.625L47.8833 101.427Z" fill="#E27525"/>
<path d="M146.269 118.625L145.19 136.261L164.676 101.427L146.269 118.625Z" fill="#E27525"/>
<path d="M93.5783 103.347L89.3166 125.046L94.7047 151.233L95.8099 116.952L93.5783 103.347Z" fill="#E27525"/>
<path d="M119.031 103.347L116.85 116.897L117.904 151.233L123.183 125.046L119.031 103.347Z" fill="#E27525"/>
<path d="M123.184 125.046L117.904 151.233L121.458 153.795L145.19 136.261L146.269 118.625L123.184 125.046Z" fill="#F5841F"/>
<path d="M66.3039 118.625L67.2557 136.261L91.042 153.795L94.7047 151.233L89.3167 125.046L66.3039 118.625Z" fill="#F5841F"/>
<path d="M123.557 177.977L123.77 170.441L121.612 168.659H90.8457L88.6969 170.441L88.8502 177.977L63.3632 166.642L72.1638 173.922L90.5593 186.257H121.899L140.335 173.922L149.044 166.642L123.557 177.977Z" fill="#C0AC9D"/>
<path d="M121.458 153.796L117.904 151.233H94.7047L91.042 153.796L88.6968 170.441L90.8456 168.659H121.612L123.77 170.441L121.458 153.796Z" fill="#161616"/>
<path d="M203.517 64.0611L210 33.0425L198.894 0L121.458 58.5075L151.633 83.1446L194.903 94.794L204.219 84.4232L200.167 81.4759L206.697 75.538L201.686 71.7702L208.216 66.8577L203.517 64.0611Z" fill="#763E1A"/>
<path d="M2 33.0425L8.53278 64.0611L3.73386 66.8577L10.3141 71.7702L5.30338 75.538L11.8326 81.4759L7.78049 84.4232L17.0968 94.794L60.3664 83.1446L90.5419 58.5075L13.1057 0L2 33.0425Z" fill="#763E1A"/>
<path d="M194.903 94.794L151.633 83.1445L164.676 101.427L145.19 136.26L170.413 135.98H208.463L194.903 94.794Z" fill="#F5841F"/>
<path d="M60.3669 83.1445L17.0971 94.794L3.58838 135.98H42.0454L67.2558 136.26L47.8836 101.427L60.3669 83.1445Z" fill="#F5841F"/>
<path d="M119.031 103.347L121.458 58.5075L132.756 26.1489H79.6328L91.042 58.5075L93.578 103.347L94.6483 116.952L94.7044 151.232H117.903L118.013 116.952L119.031 103.347Z" fill="#F5841F"/>
</svg>